<svg version="1.1" id="Layer_1" xmlns="http://www.w3.org/2000/svg" xmlns:xlink="http://www.w3.org/1999/xlink" x="0px" y="0px"
	 width="100%" viewBox="0 0 73 74" enable-background="new 0 0 73 74" xml:space="preserve">
<path fill="#252525" opacity="1.000000" stroke="none" 
	d="
M1.000000,38.000000 
	C1.000000,37.250000 1.000000,36.500000 1.308987,35.227997 
	C10.442201,29.544922 19.332737,24.491056 28.024216,19.115355 
	C29.443155,18.237738 30.250780,16.034077 30.872799,14.277529 
	C32.083458,10.858684 32.962406,7.322373 34.409615,3.909992 
	C41.879707,4.090047 43.072060,5.245215 43.529736,12.452107 
	C43.581997,13.275070 43.270885,14.224268 43.583462,14.906322 
	C44.258831,16.380007 44.892483,18.322418 46.133713,19.015411 
	C55.341110,24.156008 64.693291,29.037279 74.000000,34.000000 
	C74.000000,34.750000 74.000000,35.500000 73.665024,36.706764 
	C70.985123,41.306400 67.266273,40.115753 63.624649,39.883884 
	C60.963844,39.714466 58.257179,40.265320 55.570953,40.495106 
	C55.457188,40.998547 55.343422,41.501987 55.229652,42.005428 
	C54.584457,40.677223 53.939259,39.349022 53.167301,37.759861 
	C51.979248,39.146000 51.114487,40.154938 50.878643,40.430107 
	C48.170769,39.259033 46.011860,38.325367 42.878510,36.970287 
	C42.878510,44.319527 41.656483,50.611160 43.225777,56.105541 
	C44.763054,61.487812 49.142559,66.058296 52.881710,71.940117 
	C48.145023,71.076843 44.233074,70.363884 40.276222,69.642738 
	C39.396133,71.714096 38.698067,73.357048 38.000000,75.000000 
	C38.000000,75.000000 37.500000,75.000000 37.271248,74.614807 
	C36.370579,72.783310 35.698658,71.336998 35.020573,69.877411 
	C31.123705,70.517845 27.570877,71.101730 24.018049,71.685616 
	C23.815964,71.259903 23.613880,70.834183 23.411797,70.408463 
	C25.834166,67.579369 28.342730,64.817802 30.637716,61.888889 
	C31.594671,60.667603 32.722973,59.079529 32.699295,57.676357 
	C32.588089,51.085346 32.103592,44.500633 31.680155,36.559639 
	C28.524666,38.224819 26.139664,39.483402 23.620390,40.812847 
	C23.064390,40.109245 22.274242,39.109341 21.365427,37.959263 
	C20.316872,39.559372 19.518059,40.778366 18.719246,41.997364 
	C17.841276,41.060562 16.963308,40.123764 15.994356,39.089886 
	C10.948303,40.328079 5.683375,42.915634 1.000000,38.000000 
M43.189125,26.610207 
	C43.684296,27.764139 44.108639,29.875099 44.686043,29.917828 
	C48.652103,30.211332 52.650192,30.072002 56.637974,30.072002 
	C56.748356,29.630732 56.858738,29.189461 56.969124,28.748190 
	C52.642853,26.100946 48.316586,23.453705 43.197620,20.321413 
	C43.197620,22.855764 43.197620,24.293453 43.189125,26.610207 
M31.242275,23.692213 
	C31.136856,22.911179 31.031437,22.130142 30.852324,20.803125 
	C26.243980,23.646837 21.991583,26.270903 17.739185,28.894968 
	C17.959167,29.198374 18.179148,29.501778 18.399128,29.805182 
	C22.757685,29.805182 27.116240,29.805182 31.550560,29.805182 
	C31.440159,27.793793 31.349785,26.147251 31.242275,23.692213 
z"/>
<path fill="#e9e7e7" opacity="1.000000" stroke="none" 
	d="
M1.000000,38.468658 
	C5.683375,42.915634 10.948303,40.328079 15.994356,39.089886 
	C16.963308,40.123764 17.841276,41.060562 18.719246,41.997364 
	C19.518059,40.778366 20.316872,39.559372 21.365427,37.959263 
	C22.274242,39.109341 23.064390,40.109245 23.620390,40.812847 
	C26.139664,39.483402 28.524666,38.224819 31.680155,36.559639 
	C32.103592,44.500633 32.588089,51.085346 32.699295,57.676357 
	C32.722973,59.079529 31.594671,60.667603 30.637716,61.888889 
	C28.342730,64.817802 25.834166,67.579369 23.411797,70.408463 
	C23.613880,70.834183 23.815964,71.259903 24.018049,71.685616 
	C27.570877,71.101730 31.123705,70.517845 35.020573,69.877411 
	C35.698658,71.336998 36.370579,72.783310 37.021248,74.614807 
	C25.072384,75.000000 13.144766,75.000000 1.000000,75.000000 
	C1.000000,62.979977 1.000000,50.958645 1.000000,38.468658 
z"/>
<path fill="#e9e7e7" opacity="1.000000" stroke="none" 
	d="
M38.468658,75.000000 
	C38.698067,73.357048 39.396133,71.714096 40.276222,69.642738 
	C44.233074,70.363884 48.145023,71.076843 52.881710,71.940117 
	C49.142559,66.058296 44.763054,61.487812 43.225777,56.105541 
	C41.656483,50.611160 42.878510,44.319527 42.878510,36.970287 
	C46.011860,38.325367 48.170769,39.259033 50.878643,40.430107 
	C51.114487,40.154938 51.979248,39.146000 53.167301,37.759861 
	C53.939259,39.349022 54.584457,40.677223 55.229652,42.005428 
	C55.343422,41.501987 55.457188,40.998547 55.570953,40.495106 
	C58.257179,40.265320 60.963844,39.714466 63.624649,39.883884 
	C67.266273,40.115753 70.985123,41.306400 73.665024,37.081764 
	C74.000000,49.591301 74.000000,62.182602 74.000000,75.000000 
	C62.313412,75.000000 50.625362,75.000000 38.468658,75.000000 
z"/>
<path fill="#e9e7e7" opacity="1.000000" stroke="none" 
	d="
M74.000000,33.531342 
	C64.693291,29.037279 55.341110,24.156008 46.133713,19.015411 
	C44.892483,18.322418 44.258831,16.380007 43.583462,14.906322 
	C43.270885,14.224268 43.581997,13.275070 43.529736,12.452107 
	C43.072060,5.245215 41.879707,4.090047 34.305168,3.681352 
	C33.846569,2.584958 33.923283,1.792479 34.000000,1.000000 
	C47.252907,1.000000 60.505814,1.000000 74.000000,1.000000 
	C74.000000,11.686353 74.000000,22.374517 74.000000,33.531342 
z"/>
<path fill="#e9e7e7" opacity="1.000000" stroke="none" 
	d="
M33.531342,1.000000 
	C33.923283,1.792479 33.846569,2.584958 33.874298,3.606077 
	C32.962406,7.322373 32.083458,10.858684 30.872799,14.277529 
	C30.250780,16.034077 29.443155,18.237738 28.024216,19.115355 
	C19.332737,24.491056 10.442201,29.544922 1.308987,34.852997 
	C1.000000,23.741198 1.000000,12.482393 1.000000,1.000000 
	C11.686523,1.000000 22.374603,1.000000 33.531342,1.000000 
z"/>
<path fill="#EEEEEE" opacity="1.000000" stroke="none" 
	d="
M43.193375,26.170675 
	C43.197620,24.293453 43.197620,22.855764 43.197620,20.321413 
	C48.316586,23.453705 52.642853,26.100946 56.969124,28.748190 
	C56.858738,29.189461 56.748356,29.630732 56.637974,30.072002 
	C52.650192,30.072002 48.652103,30.211332 44.686043,29.917828 
	C44.108639,29.875099 43.684296,27.764139 43.193375,26.170675 
z"/>
<path fill="#e9e7e7" opacity="1.000000" stroke="none" 
	d="
M31.250843,24.096462 
	C31.349785,26.147251 31.440159,27.793793 31.550560,29.805182 
	C27.116240,29.805182 22.757685,29.805182 18.399128,29.805182 
	C18.179148,29.501778 17.959167,29.198374 17.739185,28.894968 
	C21.991583,26.270903 26.243980,23.646837 30.852324,20.803125 
	C31.031437,22.130142 31.136856,22.911179 31.250843,24.096462 
z"/>
</svg>